Coordinates
version=1
nRows=29
nColumns=14
inDegrees=yes

Units are S.I. units (second, meters, Newtons, ...)
Angles are in degrees.

endheader
time	pelvis_tilt	pelvis_list	pelvis_rotation	pelvis_tx	pelvis_ty	pelvis_tz	hip_flexion_r	hip_adduction_r	hip_rotation_r	knee_angle_r	ankle_angle_r	subtalar_angle_r	mtp_angle_r
      0.00000000	    -14.83305510	     -1.90177008	      9.39004517	     -0.62232835	      0.83760782	      0.09748797	     41.52369762	      1.72998893	     -8.27672761	     -9.09101338	     -4.53097154	     -2.53127481	      0.00000000
      0.01000000	    -14.63561794	     -2.05944342	      8.91822195	     -0.60454108	      0.83747706	      0.09884418	     41.29055304	      2.42572170	     -7.06711452	    -10.59989568	     -7.96721731	     -3.69617549	      0.00000000
      0.02000000	    -14.52071375	     -2.30849537	      8.33954207	     -0.58710924	      0.83777271	      0.10061382	     41.22180626	      3.21323134	     -6.28522693	    -12.58038161	     -8.97492119	     -3.28369495	      0.00000000
      0.03000000	    -14.41675061	     -2.68093521	      7.67990206	     -0.56997817	      0.83838738	      0.10264660	     41.32348301	      4.12592373	     -5.66015378	    -15.01306526	     -8.96681676	     -2.40059181	      0.00000000
      0.04000000	    -14.18864503	     -3.09868201	      7.03364258	     -0.55299915	      0.83927776	      0.10452964	     41.39629166	      5.02181609	     -5.36551837	    -17.57449496	     -9.04859690	     -2.56658493	      0.00000000
      0.05000000	    -13.78206606	     -3.53569767	      6.43009372	     -0.53636832	      0.84042489	      0.10616771	     41.23038557	      5.89214321	     -5.35936423	    -20.06688665	     -8.20161411	     -2.66043095	      0.00000000
      0.06000000	    -13.33619767	     -3.93347873	      5.81726080	     -0.52035221	      0.84161963	      0.10771909	     40.87933291	      6.75281590	     -5.36567918	    -22.39759243	     -6.24254097	     -1.98709851	      0.00000000
      0.07000000	    -12.89130147	     -4.29213856	      5.20098156	     -0.50472915	      0.84291595	      0.10911333	     40.21902992	      7.60248479	     -5.33533160	    -24.15198582	     -4.28487138	     -1.34295022	      0.00000000
      0.08000000	    -12.49815292	     -4.69374506	      4.60207472	     -0.48961721	      0.84425023	      0.11059970	     39.25990886	      8.49058529	     -5.39169900	    -25.14921870	     -2.85015837	     -1.16746932	      0.00000000
      0.09000000	    -12.19901025	     -5.15467275	      4.08477235	     -0.47499902	      0.84552996	      0.11208496	     38.12813084	      9.36702654	     -5.60571859	    -25.59101826	     -1.37352288	     -0.83777139	      0.00000000
      0.10000000	    -11.94356441	     -5.58943596	      3.66441844	     -0.46074390	      0.84692865	      0.11353948	     36.84717076	     10.16001818	     -5.88699449	    -25.64642601	      0.09308169	     -0.38458200	      0.00000000
      0.11000000	    -11.72889421	     -5.84896752	      3.32755816	     -0.44671227	      0.84857771	      0.11502810	     35.44293160	     10.73620859	     -6.18932505	    -25.40473924	      1.47275457	      0.10167538	      0.00000000
      0.12000000	    -11.61418658	     -5.90504091	      3.06222195	     -0.43292575	      0.85043233	      0.11649897	     34.07785775	     11.06009582	     -6.48254573	    -25.05306275	      2.84229851	      0.74605136	      0.00000000
      0.13000000	    -11.74161067	     -5.86093301	      2.90144820	     -0.41959039	      0.85221406	      0.11788320	     32.97493327	     11.23091814	     -6.67167828	    -24.65375082	      3.95867839	      1.14200858	      0.00000000
      0.14000000	    -12.07987591	     -5.71796396	      2.73216480	     -0.40626570	      0.85404913	      0.11938848	     32.05095310	     11.34003785	     -6.63817965	    -24.17994847	      4.85777715	      1.33550994	      0.00000000
      0.15000000	    -12.56837331	     -5.50302473	      2.56610477	     -0.39299105	      0.85596002	      0.12091777	     31.24353823	     11.42428749	     -6.31576581	    -23.63446687	      5.42285486	      1.21759046	      0.00000000
      0.16000000	    -13.09316896	     -5.23683992	      2.41391173	     -0.37980977	      0.85799366	      0.12235609	     30.41455870	     11.47878087	     -5.80481728	    -22.97832684	      5.71556678	      0.87185280	      0.00000000
      0.17000000	    -13.53367318	     -4.90477284	      2.27184675	     -0.36660850	      0.86019522	      0.12369403	     29.42359227	     11.47305695	     -5.20160971	    -22.17354993	      5.89066227	      0.43031207	      0.00000000
      0.18000000	    -13.89245713	     -4.51597701	      2.10673898	     -0.35343741	      0.86245991	      0.12493081	     28.28452778	     11.40476582	     -4.55691940	    -21.23779484	      6.04968506	      0.01677791	      0.00000000
      0.19000000	    -14.15032127	     -4.08258508	      1.91869896	     -0.34022051	      0.86475381	      0.12604298	     26.95346376	     11.28834616	     -3.81474754	    -20.14004780	      6.20755701	     -0.48478610	      0.00000000
      0.20000000	    -14.30628671	     -3.68034174	      1.72586074	     -0.32696415	      0.86704622	      0.12702648	     25.45830199	     11.20126885	     -2.98779715	    -18.94085096	      6.15318926	     -1.11026070	      0.00000000
      0.21000000	    -14.41377618	     -3.32410268	      1.53101377	     -0.31368243	      0.86920739	      0.12779397	     23.88639767	     11.13058632	     -2.25037989	    -17.65655253	      5.98229410	     -1.79680247	      0.00000000
      0.22000000	    -14.52308116	     -3.02613941	      1.32043633	     -0.30041339	      0.87106223	      0.12833382	     22.30573642	     11.06532893	     -1.52244101	    -16.34458272	      5.74099405	     -2.48644608	      0.00000000
      0.23000000	    -14.66059923	     -2.75888188	      1.09323937	     -0.28720218	      0.87259401	      0.12872247	     20.80746545	     10.98984184	     -0.84536155	    -15.10690096	      5.58619983	     -3.02445254	      0.00000000
      0.24000000	    -14.80869791	     -2.51811179	      0.87551651	     -0.27398820	      0.87378982	      0.12888593	     19.38719876	     10.88173856	     -0.35081047	    -14.00218814	      5.76674827	     -2.94140246	      0.00000000
      0.25000000	    -14.96873586	     -2.31052573	      0.67943905	     -0.26070336	      0.87465576	      0.12879525	     18.05379722	     10.74840191	     -0.07389869	    -13.04685175	      5.73894381	     -3.05881515	      0.00000000
      0.26000000	    -15.13178219	     -2.18317895	      0.49000646	     -0.24736488	      0.87529838	      0.12854201	     16.74209056	     10.70777868	      0.33041267	    -12.01291182	      5.33026762	     -3.61577929	      0.00000000
      0.27000000	    -15.29009135	     -2.04562831	      0.30834008	     -0.23387613	      0.87560389	      0.12815702	     15.42343058	     10.60313453	      0.45521073	    -10.99443199	      5.29966352	     -3.70519718	      0.00000000
      0.28000000	    -15.41664758	     -1.93223721	      0.14778858	     -0.22027826	      0.87557685	      0.12770092	     14.09880509	     10.52191009	      0.46545210	    -10.02940982	      5.34947127	     -3.87058955	      0.00000000
